<svg width="697" height="435" viewBox="0 0 697 435" fill="none" xmlns="http://www.w3.org/2000/svg">
<path d="M427.492 349.373L164.484 1.4333H78.6926M427.492 349.373H339.101M427.492 349.373L339.101 433M339.101 349.373L78.6926 1.4333M339.101 349.373V433M78.6926 1.4333V88.5266L339.101 433" stroke="#CC813C" stroke-width="2"/>
<path d="M257.642 86.7934L342.567 1.8666H427.493M257.642 86.7934H342.567M257.642 86.7934L336.935 185.586M427.493 1.8666L342.567 86.7934M427.493 1.8666V86.7934L336.935 185.586M342.567 86.7934L336.935 185.586" stroke="#CC813C" stroke-width="2"/>
<path d="M2 340.274L89.0917 250.581H175.317M2 340.274H89.0917M2 340.274L89.0917 425.201M89.0917 340.274L175.317 250.581M89.0917 340.274V425.201M175.317 250.581V340.274L89.0917 425.201" stroke="#CC813C" stroke-width="2"/>
<ellipse cx="567.446" cy="218.083" rx="21.2313" ry="21.2317" fill="#CC813C"/>
<path d="M636.206 221.116C636.206 258.853 605.615 289.444 567.879 289.444C530.143 289.444 499.552 258.853 499.552 221.116C499.552 183.38 530.143 152.788 567.879 152.788C605.615 152.788 636.206 183.38 636.206 221.116Z" stroke="#CC813C" stroke-width="2"/>
<path d="M683.868 221.116C683.868 285.176 631.938 337.107 567.879 337.107C503.82 337.107 451.89 285.176 451.89 221.116C451.89 157.056 503.82 105.125 567.879 105.125C631.938 105.125 683.868 157.056 683.868 221.116Z" stroke="#CC813C" stroke-width="2"/>
<path d="M439.625 348.94L176.617 1H90.8248M439.625 348.94H351.233M439.625 348.94L351.233 432.567M351.233 348.94L90.8248 1M351.233 348.94V432.567M90.8248 1V88.0933L351.233 432.567" stroke="#106DA2" stroke-width="2"/>
<path d="M269.774 86.3601L354.7 1.4333H439.625M269.774 86.3601H354.7M269.774 86.3601L349.067 185.152M439.625 1.4333L354.7 86.3601M439.625 1.4333V86.3601L349.067 185.152M354.7 86.3601L349.067 185.152" stroke="#106DA2" stroke-width="2"/>
<path d="M14.1322 339.841L101.224 250.147H187.449M14.1322 339.841H101.224M14.1322 339.841L101.224 424.767M101.224 339.841L187.449 250.147M101.224 339.841V424.767M187.449 250.147V339.841L101.224 424.767" stroke="#106DA2" stroke-width="2"/>
<ellipse cx="579.578" cy="217.65" rx="21.2313" ry="21.2317" fill="#106DA2"/>
<path d="M648.338 220.683C648.338 258.42 617.747 289.011 580.011 289.011C542.275 289.011 511.685 258.42 511.685 220.683C511.685 182.947 542.275 152.355 580.011 152.355C617.747 152.355 648.338 182.947 648.338 220.683Z" stroke="#106DA2" stroke-width="2"/>
<path d="M696 220.683C696 284.743 644.07 336.674 580.011 336.674C515.952 336.674 464.022 284.743 464.022 220.683C464.022 156.623 515.952 104.692 580.011 104.692C644.07 104.692 696 156.623 696 220.683Z" stroke="#106DA2" stroke-width="2"/>
</svg>
